<svg width="25" height="25" viewBox="0 0 25 25" fill="none" xmlns="http://www.w3.org/2000/svg">
<g clip-path="url(#clip0_325_1251)">
<path d="M23.8281 8.16406C21.4062 5.97656 18.9844 3.75 16.5625 1.5625C13.0078 6.95312 6.99219 11.7578 1.28906 15.2344C1.13281 15.9766 0.976562 16.6797 0.78125 17.3828C3.28125 19.6484 5.78125 21.9531 8.28125 24.2188C14.1797 20.9766 20.4297 16.3672 24.2188 11.1328C24.1016 10.1562 23.9453 9.17969 23.8281 8.16406Z" fill="#699635"/>
<path d="M8.75 21.3281C6.28906 19.0625 3.82812 16.7969 1.36719 14.5703C7.5 11.0938 12.6562 6.36719 16.4453 0.78125C18.9062 3.04688 21.3672 5.27344 23.8281 7.53906C20.0391 13.125 14.8828 17.8516 8.75 21.3281Z" fill="#83BF4F"/>
<path d="M8.125 19.8437C6.48437 18.3594 4.84375 16.8359 3.20312 15.3516C3.32031 15.2734 3.39844 15.2344 3.51563 15.1562C3.82813 14.9609 3.90625 14.6094 3.63281 14.3359L3.39844 14.1016C8.35938 11.0547 12.6562 7.14844 16.0156 2.61719L16.25 2.85156C16.5234 3.08594 16.9141 3.04687 17.1484 2.77344C17.2266 2.69531 17.2656 2.57812 17.3438 2.5C18.9844 3.98437 20.625 5.50781 22.2656 6.99219C22.1875 7.07031 22.1484 7.1875 22.0703 7.26562C21.8359 7.57812 21.875 8.00781 22.1484 8.28125L22.3828 8.51562C19.0234 13.0078 14.7266 16.9141 9.76562 19.9609L9.53125 19.7266C9.25781 19.4922 8.78906 19.4531 8.4375 19.6484C8.32031 19.7266 8.24219 19.7656 8.125 19.8437ZM4.25781 15.3906C5.58594 16.6016 6.91406 17.8125 8.28125 19.0625C8.78906 18.9062 9.375 18.9453 9.84375 19.1797C14.375 16.2891 18.3203 12.6953 21.4844 8.51562C21.2109 8.08594 21.1719 7.53906 21.3672 7.07031C20.0391 5.85938 18.7109 4.64844 17.3438 3.39844C16.9922 3.71094 16.4844 3.75 16.0547 3.51562C12.8906 7.73437 8.94531 11.3281 4.41406 14.2188C4.64844 14.6094 4.60937 15.0781 4.25781 15.3906Z" fill="#699635"/>
<path d="M7.8125 14.5703C8.24219 14.4141 8.71094 14.4531 9.02344 14.7266C8.82813 14.8828 8.59375 15.0391 8.39844 15.1953C8.32031 15.1172 8.125 15.1172 8.04688 15.1953C7.92969 15.2734 7.89063 15.3906 8.00781 15.4688C8.08594 15.5469 8.28125 15.5469 8.39844 15.4688C8.86719 15.1562 9.53125 15.1172 9.88281 15.4688C10.1562 15.7422 10.1953 16.1328 9.92188 16.4453C10 16.5234 10.0781 16.5625 10.1563 16.6406C9.96094 16.7578 9.76563 16.9141 9.57031 17.0312C9.49219 16.9531 9.41406 16.875 9.33594 16.8359C8.90625 16.9531 8.4375 16.9141 8.16406 16.6406C8.39844 16.4844 8.59375 16.3672 8.82813 16.2109C8.90625 16.2891 9.10156 16.2891 9.21875 16.2109C9.33594 16.1328 9.33594 16.0156 9.25781 15.9375C9.17969 15.8594 9.02344 15.8594 8.90625 15.9375C8.63281 16.1328 8.28125 16.2109 7.96875 16.1719C7.73438 16.1328 7.53906 16.0547 7.38281 15.9375C7.10938 15.6641 7.10937 15.3125 7.34375 15C7.26562 14.9609 7.22656 14.8828 7.14844 14.8047C7.34375 14.6875 7.53906 14.5313 7.73438 14.4141C7.69531 14.4531 7.77344 14.4922 7.8125 14.5703ZM16.875 6.21094C17.2266 5.97656 17.6563 5.97656 17.9297 6.25L17.4609 6.83594C17.3828 6.75781 17.2266 6.75781 17.1484 6.875C17.0703 6.99219 17.0703 7.14844 17.1484 7.22656C17.2266 7.30469 17.3828 7.30469 17.4609 7.1875C17.8125 6.75781 18.3984 6.67969 18.75 6.99219C19.0234 7.26563 19.1016 7.69531 18.9453 8.08594C19.0234 8.16406 19.1016 8.20313 19.1797 8.28125C19.0234 8.47656 18.9062 8.63281 18.75 8.82813C18.6719 8.75 18.5938 8.67188 18.5156 8.63281C18.1641 8.82813 17.7734 8.82813 17.5 8.55469C17.6562 8.35938 17.8516 8.16406 18.0078 7.96875C18.0859 8.04688 18.2422 8.04688 18.3203 7.92969C18.3984 7.8125 18.3984 7.65625 18.3203 7.57813C18.2422 7.5 18.0859 7.5 18.0078 7.61719C17.8125 7.85156 17.5 8.00781 17.2266 8.00781C17.0312 8.00781 16.8359 7.92969 16.6797 7.8125C16.4063 7.53906 16.3281 7.14844 16.4844 6.75781C16.4063 6.71875 16.3672 6.64062 16.2891 6.5625C16.4453 6.40625 16.6016 6.21094 16.7188 6.01562C16.7188 6.09375 16.7969 6.13281 16.875 6.21094ZM15.7031 13.8672C14.4531 15 12.3438 14.9609 11.1328 13.8672C9.92188 12.7344 10 10.9766 11.25 9.84375C12.5 8.71094 14.4531 8.59375 15.6641 9.72656C16.9141 10.8203 16.9531 12.7344 15.7031 13.8672Z" fill="#699635"/>
<path d="M8.51562 9.57031L15.8984 16.3281C16.7578 15.625 17.5391 14.8828 18.3203 14.1016L10.9766 7.34375C10.1953 8.08594 9.375 8.82813 8.51562 9.57031Z" fill="#FFDD7D"/>
<path d="M15.9375 19.2969C16.7578 18.6719 17.5781 18.0078 18.3594 17.3438V14.0625C17.5781 14.8438 16.7578 15.5859 15.9375 16.2891V19.2969Z" fill="#DBB471"/>
<path d="M4.72656 9.64837C5.15625 9.49212 5.50781 9.25775 5.85937 8.98431C6.21094 8.71087 6.52344 8.43743 6.875 8.12493C7.22656 7.8515 7.57812 7.539 7.96875 7.34368C8.35937 7.10931 8.86719 6.99212 9.29687 7.07025C8.86719 7.14837 8.47656 7.34368 8.125 7.61712C7.77344 7.8515 7.46094 8.164 7.10938 8.43743C6.75781 8.71087 6.40625 9.02337 6.01562 9.25775C5.625 9.49212 5.15625 9.64837 4.72656 9.64837Z" fill="#8D9998"/>
<path d="M15.547 12.9298C15.547 12.9298 17.461 13.4766 21.9142 12.3048C26.3673 11.1329 24.2579 23.9454 16.1329 23.9454C15.2345 23.9454 15.1954 22.8126 17.6954 20.7813C17.6954 20.7813 14.1798 21.6016 15.7032 18.9844C15.7032 18.9844 13.2032 19.4141 14.336 17.4219C14.336 17.4219 14.8439 15.9376 14.3751 14.2579C14.4142 14.2579 14.6876 13.3985 15.547 12.9298Z" fill="#E8E8E8"/>
<path d="M24.0234 13.5547C24.1016 16.9922 21.3672 22.6953 15.9375 22.6953H15.8594C15.3516 23.5156 15.5859 23.9844 16.1328 23.9844C22.3047 23.9453 25 16.6016 24.0234 13.5547Z" fill="#D1D1D1"/>
<path d="M21.2109 15.4297C20.039 19.6484 15.3515 20 15.3515 20C15.1562 20.8984 15.5468 21.2891 16.0547 21.2891C17.7734 21.3281 20.9765 18.4766 21.2109 15.4297ZM17.9297 15.4297C15.1562 19.3359 14.1797 17.8906 14.1797 17.8906C13.4765 19.4531 15.3125 19.4531 15.625 19.1016C16.5234 18.125 17.9687 16.0938 17.9297 15.4297Z" fill="#D1D1D1"/>
<path d="M15.8203 22.8125C16.2891 22.1875 16.875 21.6797 17.4609 21.1719C18.0469 20.6641 18.6328 20.1563 19.2188 19.6094C19.7656 19.0625 20.3125 18.4375 20.7031 17.7344C21.0938 17.0313 21.2891 16.2109 21.2109 15.4297C21.1328 16.2109 20.8594 16.9531 20.4297 17.5781C20 18.2031 19.4922 18.7891 18.9453 19.3359C18.3984 19.8828 17.8125 20.3906 17.2656 20.9766C16.6797 21.4844 16.1719 22.1094 15.8203 22.8125ZM15.3516 20C15.5078 19.5703 15.7422 19.2187 16.0156 18.8672C16.2891 18.5156 16.5625 18.2031 16.875 17.8516C17.1484 17.5 17.4609 17.1484 17.6563 16.7578C17.8906 16.3672 18.0078 15.8594 17.9297 15.4297C17.8516 15.8594 17.6563 16.25 17.3828 16.6016C17.1484 16.9531 16.8359 17.2656 16.5625 17.6172C16.2891 17.9687 15.9766 18.3203 15.7422 18.7109C15.5078 19.1016 15.3516 19.5703 15.3516 20Z" fill="#8D9998"/>
<path d="M11.7969 9.45319C11.7969 9.45319 11.25 7.53912 12.4219 3.086C13.5938 -1.36713 0.78125 0.74225 0.78125 8.86725C0.78125 9.76569 1.91406 9.80475 3.94531 7.30475C3.94531 7.30475 3.125 10.8204 5.74219 9.29694C5.74219 9.29694 5.3125 11.7969 7.30469 10.6641C7.30469 10.6641 8.78906 10.1563 10.4688 10.6251C10.4688 10.586 11.3281 10.3126 11.7969 9.45319Z" fill="#E8E8E8"/>
<path d="M11.1719 0.976505C7.73438 0.89838 2.03125 3.63276 2.03125 9.06244V9.14057C1.21094 9.60932 0.78125 9.41401 0.78125 8.86713C0.78125 2.69526 8.125 -5.77569e-05 11.1719 0.976505Z" fill="#D1D1D1"/>
<path d="M9.29678 3.78906C5.07803 4.96094 4.72647 9.64844 4.72647 9.64844C3.82803 9.84375 3.43741 9.45312 3.43741 8.94531C3.39835 7.22656 6.24991 4.02344 9.29678 3.78906ZM9.29678 7.07031C5.39053 9.84375 6.83585 10.8203 6.83585 10.8203C5.27335 11.5234 5.27335 9.6875 5.62491 9.375C6.60147 8.47656 8.63272 7.03125 9.29678 7.07031Z" fill="#D1D1D1"/>
<path d="M1.91406 9.17957C2.53906 8.71082 3.04688 8.12489 3.55469 7.53895C4.0625 6.95301 4.57031 6.36707 5.11719 5.78114C5.66406 5.23426 6.28906 4.68739 6.99219 4.29676C7.69531 3.90614 8.51562 3.71082 9.29688 3.78895C8.51562 3.86707 7.77344 4.14051 7.14844 4.5702C6.52344 4.99989 5.9375 5.5077 5.39062 6.05457C4.84375 6.60145 4.33594 7.18739 3.75 7.73426C3.20313 8.3202 2.61719 8.82801 1.91406 9.17957Z" fill="#8D9998"/>
<path d="M4.72656 9.64837C5.15625 9.49212 5.50781 9.25775 5.85937 8.98431C6.21094 8.71087 6.52344 8.43743 6.875 8.12493C7.22656 7.8515 7.57812 7.539 7.96875 7.34368C8.35937 7.10931 8.86719 6.99212 9.29687 7.07025C8.86719 7.14837 8.47656 7.34368 8.125 7.61712C7.77344 7.8515 7.46094 8.164 7.10938 8.43743C6.75781 8.71087 6.40625 9.02337 6.01562 9.25775C5.625 9.49212 5.15625 9.64837 4.72656 9.64837Z" fill="#8D9998"/>
</g>
<defs>
<clipPath id="clip0_325_1251">
<rect width="25" height="25" fill="white"/>
</clipPath>
</defs>
</svg>
