<svg width="31" height="31" viewBox="0 0 31 31" fill="none" xmlns="http://www.w3.org/2000/svg">
<path d="M15.6808 9.84253H8.87369C6.47119 9.84253 5.9287 11.0438 5.63162 12.5292L4.53369 17.7605H20.0337L18.9358 12.5292C18.6129 11.0438 18.0833 9.84253 15.6808 9.84253Z" stroke="#E64A17" stroke-width="2" stroke-linecap="round" stroke-linejoin="round"/>
<path d="M21.9454 26.2984C22.0487 27.4351 21.1445 28.4167 19.982 28.4167H18.1608C17.1145 28.4167 16.9725 27.9646 16.7787 27.4221L16.585 26.8409C16.3137 26.053 16.1329 25.5105 14.7379 25.5105H9.77788C8.38288 25.5105 8.1762 26.1176 7.93079 26.8409L7.73705 27.4221C7.55621 27.9775 7.41412 28.4167 6.35495 28.4167H4.5337C3.3712 28.4167 2.45413 27.4351 2.57038 26.2984L3.11288 20.3955C3.25496 18.9359 3.5262 17.7476 6.07078 17.7476H18.432C20.9766 17.7476 21.2479 18.9359 21.39 20.3955L21.9454 26.2984Z" stroke="#E64A17" stroke-width="2" stroke-linecap="round" stroke-linejoin="round"/>
<path d="M4.52075 14.8542H3.552" stroke="#E64A17" stroke-width="2" stroke-linecap="round" stroke-linejoin="round"/>
<path d="M20.9895 14.8542H20.0208" stroke="#E64A17" stroke-width="2" stroke-linecap="round" stroke-linejoin="round"/>
<path d="M6.45825 21.6355H9.3645" stroke="#E64A17" stroke-width="2" stroke-linecap="round" stroke-linejoin="round"/>
<path d="M15.177 21.6355H18.0833" stroke="#E64A17" stroke-width="2" stroke-linecap="round" stroke-linejoin="round"/>
<path d="M24.167 11.2891C24.5287 10.4495 24.3995 9.3129 23.7279 8.31831C23.0691 7.32373 22.0616 6.76831 21.1445 6.78123" stroke="#E64A17" stroke-width="2" stroke-linecap="round" stroke-linejoin="round"/>
<path d="M28.1841 12.5678C28.7266 10.6174 28.3391 8.22786 26.957 6.16119C25.5749 4.09453 23.5083 2.82867 21.4933 2.58325" stroke="#E64A17" stroke-width="2" stroke-linecap="round" stroke-linejoin="round"/>
</svg>
