<svg width="35" height="35" viewBox="0 0 35 35" fill="none" xmlns="http://www.w3.org/2000/svg">
<rect width="35" height="35" fill="#FF0000" fill-opacity="0.01"/>
<path fill-rule="evenodd" clip-rule="evenodd" d="M17.5 31.5C9.7685 31.5 3.5 25.2315 3.5 17.5C3.5 9.7685 9.7685 3.5 17.5 3.5C25.2315 3.5 31.5 9.7685 31.5 17.5C31.5 25.2315 25.2315 31.5 17.5 31.5ZM15.75 19.25C15.75 20.216 16.534 21 17.5 21C18.466 21 19.25 20.216 19.25 19.25V10.5C19.25 9.534 18.466 8.75 17.5 8.75C16.534 8.75 15.75 9.534 15.75 10.5V19.25ZM15.75 24.472C15.75 23.506 16.534 22.722 17.5 22.722C18.466 22.722 19.25 23.506 19.25 24.472C19.25 25.438 18.466 26.222 17.5 26.222C16.534 26.222 15.75 25.438 15.75 24.472Z" fill="black"/>
<mask id="mask0_325_1777" style="mask-type:luminance" maskUnits="userSpaceOnUse" x="3" y="3" width="29" height="29">
<path fill-rule="evenodd" clip-rule="evenodd" d="M17.5 31.5C9.7685 31.5 3.5 25.2315 3.5 17.5C3.5 9.7685 9.7685 3.5 17.5 3.5C25.2315 3.5 31.5 9.7685 31.5 17.5C31.5 25.2315 25.2315 31.5 17.5 31.5ZM15.75 19.25C15.75 20.216 16.534 21 17.5 21C18.466 21 19.25 20.216 19.25 19.25V10.5C19.25 9.534 18.466 8.75 17.5 8.75C16.534 8.75 15.75 9.534 15.75 10.5V19.25ZM15.75 24.472C15.75 23.506 16.534 22.722 17.5 22.722C18.466 22.722 19.25 23.506 19.25 24.472C19.25 25.438 18.466 26.222 17.5 26.222C16.534 26.222 15.75 25.438 15.75 24.472Z" fill="white"/>
</mask>
<g mask="url(#mask0_325_1777)">
<rect width="35" height="35" fill="#E64A17"/>
</g>
</svg>
