<svg width="14" height="18" viewBox="0 0 14 18" fill="none" xmlns="http://www.w3.org/2000/svg">
<path fill-rule="evenodd" clip-rule="evenodd" d="M6.73929 17.7366C7.39822 17.7366 10.5361 13.7961 11.3098 12.5408C12.4991 10.6113 13.2335 9.46976 13.2335 7.33963C13.2335 3.753 10.3259 0.845459 6.73929 0.845459C3.15266 0.845459 0.245117 3.753 0.245117 7.33963C0.245117 9.48084 0.925526 10.6148 2.11092 12.5408C2.93712 13.8833 6.08036 17.7366 6.73929 17.7366ZM6.73907 10.1451C8.53238 10.1451 9.98615 8.69128 9.98615 6.89796C9.98615 5.10465 8.53238 3.65088 6.73907 3.65088C4.94575 3.65088 3.49198 5.10465 3.49198 6.89796C3.49198 8.69128 4.94575 10.1451 6.73907 10.1451Z" fill="#E64A17"/>
</svg>
