<svg width="31" height="31" viewBox="0 0 31 31" fill="none" xmlns="http://www.w3.org/2000/svg">
<path d="M9.42063 6H21.2937C23.4338 6 24.8912 6.00297 25.982 6.14841C27.0298 6.29089 27.5151 6.53874 27.8446 6.8697C28.1755 7.19917 28.4234 7.68597 28.5644 8.73228C28.7113 9.82311 28.7143 11.2805 28.7143 13.4206V19.3571C28.7143 21.4987 28.7113 22.9547 28.5659 24.0455C28.4234 25.0933 28.1755 25.5786 27.8446 25.9081C27.5151 26.239 27.0283 26.4869 25.982 26.6279C24.8912 26.7748 23.4352 26.7778 21.2937 26.7778H9.42063C7.28052 26.7778 5.82311 26.7748 4.73228 26.6294C3.68448 26.4869 3.19917 26.239 2.8697 25.9081C2.53874 25.5786 2.29089 25.0918 2.1499 24.0455C2.00297 22.9547 2 21.4987 2 19.3571V13.4206C2 11.2805 2.00297 9.82311 2.14841 8.73228C2.29089 7.68448 2.53874 7.19917 2.8697 6.8697C3.19917 6.53874 3.68597 6.29089 4.73228 6.1499C5.82311 6.00297 7.28052 6 9.42063 6Z" stroke="#E64A17" stroke-width="2.5"/>
<path d="M3.48401 7.48413L11.7951 13.7175C13.5108 15.0042 14.3671 15.6468 15.357 15.6468C16.3469 15.6468 17.2033 15.0042 18.9189 13.7175L27.23 7.48413" stroke="#E64A17" stroke-width="2.5"/>
</svg>
