<svg width="35" height="35" viewBox="0 0 35 35" fill="none" xmlns="http://www.w3.org/2000/svg">
<rect width="35" height="35" fill="#FF0000" fill-opacity="0.01"/>
<path fill-rule="evenodd" clip-rule="evenodd" d="M24.1533 11.8345C24.1533 15.9514 21.1607 19.2913 17.4699 19.2913C13.7796 19.2913 10.7896 15.9514 10.7896 11.8345C10.7896 7.71802 13.7796 4.66675 17.4699 4.66675C21.1608 4.66675 24.1533 7.71802 24.1533 11.8345ZM29.4248 26.3429L30.0128 27.6257C30.2562 28.1559 30.5054 29.108 30.1724 29.5863C29.578 30.4419 28.2436 30.3284 28.2436 30.3284L6.91159 30.3283C6.91159 30.3283 5.4721 30.4233 4.83796 29.5493C4.49537 29.0771 4.73402 28.1203 4.9683 27.5864L5.54208 26.2783C5.54208 26.2783 7.12889 22.7279 8.93523 20.6705C10.0448 19.4089 11.3646 19.6962 12.2181 20.1065C12.5833 20.2818 12.9815 20.6901 13.3363 21.0539C13.4924 21.2139 13.64 21.3652 13.7727 21.4843C14.3713 22.0214 15.4283 22.6318 17.1559 22.6662H18.2159C19.9426 22.6318 20.9994 22.0214 21.5975 21.4843C21.7409 21.3556 21.9 21.1866 22.0675 21.0086C22.4072 20.6478 22.7816 20.25 23.1304 20.0754C23.9139 19.6831 25.1062 19.4416 26.1868 20.6706C27.9938 22.7281 29.4248 26.3429 29.4248 26.3429Z" fill="#9B9B9B"/>
<mask id="mask0_325_1775" style="mask-type:luminance" maskUnits="userSpaceOnUse" x="4" y="4" width="27" height="27">
<path fill-rule="evenodd" clip-rule="evenodd" d="M24.1533 11.8345C24.1533 15.9514 21.1607 19.2913 17.4699 19.2913C13.7796 19.2913 10.7896 15.9514 10.7896 11.8345C10.7896 7.71802 13.7796 4.66675 17.4699 4.66675C21.1608 4.66675 24.1533 7.71802 24.1533 11.8345ZM29.4248 26.3429L30.0128 27.6257C30.2562 28.1559 30.5054 29.108 30.1724 29.5863C29.578 30.4419 28.2436 30.3284 28.2436 30.3284L6.91159 30.3283C6.91159 30.3283 5.4721 30.4233 4.83796 29.5493C4.49537 29.0771 4.73402 28.1203 4.9683 27.5864L5.54208 26.2783C5.54208 26.2783 7.12889 22.7279 8.93523 20.6705C10.0448 19.4089 11.3646 19.6962 12.2181 20.1065C12.5833 20.2818 12.9815 20.6901 13.3363 21.0539C13.4924 21.2139 13.64 21.3652 13.7727 21.4843C14.3713 22.0214 15.4283 22.6318 17.1559 22.6662H18.2159C19.9426 22.6318 20.9994 22.0214 21.5975 21.4843C21.7409 21.3556 21.9 21.1866 22.0675 21.0086C22.4072 20.6478 22.7816 20.25 23.1304 20.0754C23.9139 19.6831 25.1062 19.4416 26.1868 20.6706C27.9938 22.7281 29.4248 26.3429 29.4248 26.3429Z" fill="white"/>
</mask>
<g mask="url(#mask0_325_1775)">
<rect width="35" height="35" fill="#E64A17"/>
</g>
</svg>
