<svg width="35" height="35" viewBox="0 0 35 35" fill="none" xmlns="http://www.w3.org/2000/svg">
<rect width="35" height="35" fill="#FF0000" fill-opacity="0.01"/>
<path fill-rule="evenodd" clip-rule="evenodd" d="M28.5656 14.7L30.38 15.036C31.031 15.1819 31.4953 15.7577 31.5 16.4248V18.5864C31.4901 19.2493 31.027 19.819 30.38 19.964L28.5656 20.3C27.9454 20.4657 27.4354 20.9068 27.182 21.4967C26.9286 22.0865 26.9597 22.76 27.2664 23.324L28.308 24.78C28.7184 25.3563 28.6471 26.1458 28.14 26.6392L26.628 28.14C26.1501 28.5933 25.4247 28.6626 24.8696 28.308L23.4136 27.2664C22.8428 26.9234 22.1429 26.8723 21.5283 27.1287C20.9137 27.3852 20.4577 27.9186 20.3 28.5656L19.9528 30.38C19.8078 31.027 19.2381 31.4901 18.5752 31.5H16.4136C15.7507 31.4901 15.181 31.027 15.036 30.38L14.7 28.5656C14.5343 27.9454 14.0932 27.4354 13.5033 27.182C12.9135 26.9286 12.24 26.9597 11.676 27.2664L10.22 28.308C9.64594 28.712 8.86379 28.6409 8.372 28.14L6.86 26.6392C6.3529 26.1458 6.28155 25.3563 6.692 24.78L7.7336 23.4136C8.07661 22.8428 8.12773 22.1429 7.87128 21.5283C7.61483 20.9137 7.0814 20.4577 6.4344 20.3L4.62 19.964C3.96899 19.8181 3.50469 19.2423 3.5 18.5752V16.4136C3.50986 15.7507 3.97303 15.181 4.62 15.036L6.4344 14.7C7.05463 14.5343 7.56458 14.0932 7.818 13.5033C8.07142 12.9135 8.04031 12.24 7.7336 11.676L6.692 10.22C6.28155 9.64372 6.3529 8.85417 6.86 8.3608L8.372 6.86C8.86379 6.35912 9.64594 6.28801 10.22 6.692L11.6312 7.7336C12.1988 8.05817 12.8853 8.09906 13.4874 7.84417C14.0895 7.58927 14.538 7.06783 14.7 6.4344L15.036 4.62C15.1819 3.96899 15.7577 3.50469 16.4248 3.5H18.5864C19.2493 3.50986 19.819 3.97303 19.964 4.62L20.3 6.4344C20.456 7.05752 20.8721 7.58368 21.4424 7.8792C22.0588 8.12148 22.7522 8.06782 23.324 7.7336L24.78 6.692C25.3541 6.28801 26.1362 6.35912 26.628 6.86L28.14 8.3608C28.6471 8.85417 28.7184 9.64372 28.308 10.22L27.2664 11.5864C26.9234 12.1572 26.8723 12.8571 27.1287 13.4717C27.3852 14.0863 27.9186 14.5423 28.5656 14.7ZM17.5 22.54C20.2835 22.54 22.54 20.2835 22.54 17.5C22.54 14.7165 20.2835 12.46 17.5 12.46C14.7165 12.46 12.46 14.7165 12.46 17.5C12.46 20.2835 14.7165 22.54 17.5 22.54Z" fill="#0E1D25"/>
<mask id="mask0_325_1776" style="mask-type:luminance" maskUnits="userSpaceOnUse" x="3" y="3" width="29" height="29">
<path fill-rule="evenodd" clip-rule="evenodd" d="M28.5656 14.7L30.38 15.036C31.031 15.1819 31.4953 15.7577 31.5 16.4248V18.5864C31.4901 19.2493 31.027 19.819 30.38 19.964L28.5656 20.3C27.9454 20.4657 27.4354 20.9068 27.182 21.4967C26.9286 22.0865 26.9597 22.76 27.2664 23.324L28.308 24.78C28.7184 25.3563 28.6471 26.1458 28.14 26.6392L26.628 28.14C26.1501 28.5933 25.4247 28.6626 24.8696 28.308L23.4136 27.2664C22.8428 26.9234 22.1429 26.8723 21.5283 27.1287C20.9137 27.3852 20.4577 27.9186 20.3 28.5656L19.9528 30.38C19.8078 31.027 19.2381 31.4901 18.5752 31.5H16.4136C15.7507 31.4901 15.181 31.027 15.036 30.38L14.7 28.5656C14.5343 27.9454 14.0932 27.4354 13.5033 27.182C12.9135 26.9286 12.24 26.9597 11.676 27.2664L10.22 28.308C9.64594 28.712 8.86379 28.6409 8.372 28.14L6.86 26.6392C6.3529 26.1458 6.28155 25.3563 6.692 24.78L7.7336 23.4136C8.07661 22.8428 8.12773 22.1429 7.87128 21.5283C7.61483 20.9137 7.0814 20.4577 6.4344 20.3L4.62 19.964C3.96899 19.8181 3.50469 19.2423 3.5 18.5752V16.4136C3.50986 15.7507 3.97303 15.181 4.62 15.036L6.4344 14.7C7.05463 14.5343 7.56458 14.0932 7.818 13.5033C8.07142 12.9135 8.04031 12.24 7.7336 11.676L6.692 10.22C6.28155 9.64372 6.3529 8.85417 6.86 8.3608L8.372 6.86C8.86379 6.35912 9.64594 6.28801 10.22 6.692L11.6312 7.7336C12.1988 8.05817 12.8853 8.09906 13.4874 7.84417C14.0895 7.58927 14.538 7.06783 14.7 6.4344L15.036 4.62C15.1819 3.96899 15.7577 3.50469 16.4248 3.5H18.5864C19.2493 3.50986 19.819 3.97303 19.964 4.62L20.3 6.4344C20.456 7.05752 20.8721 7.58368 21.4424 7.8792C22.0588 8.12148 22.7522 8.06782 23.324 7.7336L24.78 6.692C25.3541 6.28801 26.1362 6.35912 26.628 6.86L28.14 8.3608C28.6471 8.85417 28.7184 9.64372 28.308 10.22L27.2664 11.5864C26.9234 12.1572 26.8723 12.8571 27.1287 13.4717C27.3852 14.0863 27.9186 14.5423 28.5656 14.7ZM17.5 22.54C20.2835 22.54 22.54 20.2835 22.54 17.5C22.54 14.7165 20.2835 12.46 17.5 12.46C14.7165 12.46 12.46 14.7165 12.46 17.5C12.46 20.2835 14.7165 22.54 17.5 22.54Z" fill="white"/>
</mask>
<g mask="url(#mask0_325_1776)">
<rect width="35" height="35" fill="#E64A17"/>
</g>
</svg>
