<svg width="68" height="68" viewBox="0 0 68 68" fill="none" xmlns="http://www.w3.org/2000/svg">
<path d="M0.99543 50.1823H45.2815V15.3189C45.2815 11.7861 42.4177 8.92224 38.8848 8.92224H7.39195C3.85914 8.92224 0.995296 11.7861 0.995296 15.3189V50.1823H0.99543Z" fill="#C7CFD3"/>
<path d="M56.4193 26.371H48.2799C46.624 26.371 45.2815 27.8569 45.2815 29.6898V50.1378H67.0953V40.0706C67.0953 38.8933 66.7415 37.7494 66.0895 36.8192L60.2057 28.424C59.298 27.1288 57.9003 26.371 56.4193 26.371Z" fill="#FF473E"/>
<path d="M65.9458 55.7967H1.82529C0.848587 55.7967 0.0568924 55.005 0.0568924 54.0283V51.0293C0.0568924 50.5369 0.455994 50.1378 0.948334 50.1378H67.0826C67.4313 50.1378 67.7142 50.4206 67.7142 50.7693V54.0282C67.7142 55.0049 66.9224 55.7967 65.9458 55.7967Z" fill="#2B3B47"/>
<path d="M62.9876 37.5735L57.8282 30.2164C57.708 30.045 57.5231 29.9447 57.3274 29.9447H51.2283C50.8778 29.9447 50.5938 30.2601 50.5938 30.6491V38.0062C50.5938 38.3952 50.8778 38.7106 51.2283 38.7106H62.4867C63.0149 38.7106 63.312 38.036 62.9876 37.5735Z" fill="#76DFFF"/>
<path d="M65.3386 46.8383H67.0953V42.1816H65.3386C64.5149 42.1816 63.8473 42.8493 63.8473 43.673V45.3468C63.8473 46.1707 64.5149 46.8383 65.3386 46.8383Z" fill="#FFD469"/>
<path d="M50.9083 57.4086C50.9083 60.3607 53.3013 62.7537 56.2534 62.7537C59.2054 62.7537 61.5984 60.3607 61.5984 57.4086C61.5984 54.4566 59.2054 52.0636 56.2534 52.0636C53.3013 52.0636 50.9083 54.4567 50.9083 57.4086ZM30.5992 52.0637C33.5512 52.0637 35.9442 54.4567 35.9442 57.4088C35.9442 60.3608 33.5512 62.7538 30.5992 62.7538C27.6471 62.7538 25.2541 60.3608 25.2541 57.4088C25.2541 54.4567 27.6473 52.0637 30.5992 52.0637ZM15.6777 52.0637C18.6297 52.0637 21.0227 54.4567 21.0227 57.4088C21.0227 60.3608 18.6297 62.7538 15.6777 62.7538C12.7257 62.7538 10.3326 60.3608 10.3326 57.4088C10.3326 54.4567 12.7257 52.0637 15.6777 52.0637Z" fill="#597B91"/>
<path d="M52.7501 57.4086C52.7501 59.3434 54.3186 60.9119 56.2534 60.9119C58.1882 60.9119 59.7567 59.3434 59.7567 57.4086C59.7567 55.4738 58.1882 53.9053 56.2534 53.9053C54.3186 53.9053 52.7501 55.4738 52.7501 57.4086ZM30.5992 53.9054C32.534 53.9054 34.1025 55.4739 34.1025 57.4087C34.1025 59.3435 32.534 60.9121 30.5992 60.9121C28.6644 60.9121 27.0959 59.3435 27.0959 57.4087C27.0959 55.4739 28.6644 53.9054 30.5992 53.9054ZM15.6777 53.9054C17.6125 53.9054 19.181 55.4739 19.181 57.4087C19.181 59.3435 17.6125 60.9121 15.6777 60.9121C13.7429 60.9121 12.1744 59.3435 12.1744 57.4087C12.1744 55.4739 13.7429 53.9054 15.6777 53.9054Z" fill="#2B3B47"/>
</svg>
